# xmcd CD database file
#
# Track frame offsets:
#	182
#	11495
#	31157
#	65832
#	92782
#	110220
#	115182
#	135270
#	151245
#	213420
#	223245
#	234070
#	249857
#	271645
#	279145
#	313782
#
# Disc length: 4462 seconds
#
# Revision: 6
# Processed by: cddbd v1.5.2PL0 Copyright (c) Steve Scherf et al.
# Submitted via: CDex 1.51
#
DISCID=d3116c10
DTITLE=Cletânea - Bolero-Gret Classical Dance Hits
DYEAR=1993
DGENRE=Classical
TTITLE0=Sabre Dance (Aram Khatchaturian)
TTITLE1=Ritual Fire Dance (Manuel De Falla)
TTITLE2=Danse Macabre (Camille Saint-Saëns)
TTITLE3=Saltarello (Felix Mendelssohn Bartholdy)
TTITLE4=Polovtsian Dance No.8 (Alexander Borodin)
TTITLE5=Russian Dance [Trepak] (Pjotr Ilyich Tchaikovsky)
TTITLE6=Infernal Dance (Igor Stravinsky)
TTITLE7=Anitra's Dance (Edward Grieg)
TTITLE8=Bolero (Maurice Ravel)
TTITLE9=Habanera (George Bizet)
TTITLE10=Hungarian Dance No.5 (Johannes Brahms)
TTITLE11=Seguidillas (Manuel De Falla)
TTITLE12=Dance Of The Comedians [Skocna] (Bedrich Smetana)
TTITLE13=Cossack Dance (Ottorino Respighi)
TTITLE14=Dance Of The Persian Slaves (Modest Mussorgsky)
TTITLE15=Slavonic Dance (Antonin Dvorak)
EXTD=YEAR: 1993
EXTT0=
EXTT1=
EXTT2=
EXTT3=
EXTT4=
EXTT5=
EXTT6=
EXTT7=
EXTT8=
EXTT9=
EXTT10=
EXTT11=
EXTT12=
EXTT13=
EXTT14=
EXTT15=
PLAYORDER=
